<?xml version="1.0" encoding="UTF-8"?>
<svg xmlns="http://www.w3.org/2000/svg" viewBox="0 0 96 96" role="img" aria-label="MeshDB mark">
  <defs>
    <linearGradient id="meshGrad" x1="0" y1="0" x2="1" y2="1">
      <stop offset="0%" stop-color="#4F46E5"/>
      <stop offset="100%" stop-color="#14B8A6"/>
    </linearGradient>
  </defs>
  <g transform="translate(48 48)">
    <g stroke="url(#meshGrad)" stroke-width="2.5" stroke-linecap="round" fill="none">
      <line x1="0" y1="0" x2="0" y2="-30"/>
      <line x1="0" y1="0" x2="26" y2="-15"/>
      <line x1="0" y1="0" x2="26" y2="15"/>
      <line x1="0" y1="0" x2="0" y2="30"/>
      <line x1="0" y1="0" x2="-26" y2="15"/>
      <line x1="0" y1="0" x2="-26" y2="-15"/>
      <line x1="0" y1="-30" x2="26" y2="-15"/>
      <line x1="26" y1="-15" x2="26" y2="15"/>
      <line x1="26" y1="15" x2="0" y2="30"/>
      <line x1="0" y1="30" x2="-26" y2="15"/>
      <line x1="-26" y1="15" x2="-26" y2="-15"/>
      <line x1="-26" y1="-15" x2="0" y2="-30"/>
    </g>
    <g fill="url(#meshGrad)">
      <circle cx="0"   cy="-30" r="4.5"/>
      <circle cx="26"  cy="-15" r="4.5"/>
      <circle cx="26"  cy="15"  r="4.5"/>
      <circle cx="0"   cy="30"  r="4.5"/>
      <circle cx="-26" cy="15"  r="4.5"/>
      <circle cx="-26" cy="-15" r="4.5"/>
    </g>
    <circle cx="0" cy="0" r="7" fill="url(#meshGrad)"/>
  </g>
</svg>
